<svg xmlns="http://www.w3.org/2000/svg" width="562" height="461" viewBox="0 0 562 461"><g fill="#fff" fill-rule="evenodd"><path d="m423.5 409.5-.25.25H423l-.5.5V412l.25.25v.5l.25.25v3.5l.25.25v.5l.25.25v.25l1.25 1.25v.25l.75.75v.25l.25.25v.5l.25.25v3.25l.25.25v.75l.5.75v.5l.25.25v.5l.25.25v.5l1.5 2.25v.5l.25.25v1.25l.25.25v.5l.25.25v.5l.25.25.25.75.75.75h.25l.25.25h.5l.25-.25h.25l1-1v-.25l.25-.25v-.5l.25-.25v-.5l.25-.25v-.5l.25-.25v-.25l.25-.25v-.25l.25-.25v-.25l.5-.75v-.5l.25-.25v-.5l.25-.25V425l-.25-.25v-.5l-.5-.5h-.5l-2.25 2.25H432l-.25.25h-.5L431 426h-.25l-1-1v-.25l-.25-.25v-.25l-.5-.75v-.5l-.25-.25v-3.5l-.25-.25v-.5l-.25-.25v-.5l-.25-.25-.25-.75-.5-.5V416l-.5-.5v-.25l-.5-.5v-.25l-.25-.25v-.5l-.25-.25v-1.25l-.25-.25v-.5l-.25-.25v-.5l-.5-.5V410l-.25-.25h-.25l-.25-.25ZM150.5 409.5h-1.25l-1 1-.25.75v4.5l-1 2.25-1.25 1.5-2.5 1.25h-.75l-2-.75h-7.25l-1.25-.5-1.75-1.75-.5-1.25v-5l-.5-1-1.25-.5-1.5.5-.5 1v22.75l.5 1 1.25.5 1.5-.5.5-1v-6l.25-.75 1.75-2.25 1.25-1 1.25-.5h3.25l2.25.75 2.25-.75h1.5l1.25.5 1.75 1.5 1.25 1.75.25.75v5l.25.25v.75l1.25 1 1-.5.25-.75v-9.75l.75-2v-1.75l-.75-2V416l1-2.5v-2.25l-.25-.75ZM372 409.25l-.5.25-1 1.25v.5l-.5.75v.75l-2.5 4v.5l-.5 1v1.25l-.25.25v.5l-.75 1v.25l-.5.5v.25l-.5.5-.75 1.5v.5l-.25.25v.75l-.25.25v.5L363 428v.75l-2.5 4v.5l-.25.25v1.75l1 1h.75l.75-.5v-.25l.5-.5 1-2 .75-.75h.25l3.25-2.25h.5l.25-.25h3.25l.25-.25h.5l.25-.25h.5l.25-.25 1.25-.25.25.25h.5l.5.25.5.5h.25l.5.5h.25l.5.5 1 .5.75.75 1 2 1.25 1.5h2l.5-.75v-.5l-1.25-2v-.5l-.25-.25v-1.25l-.25-.25-.25-1.25-2.5-4V424l-.75-1.5v-.5l-.25-.25-.25-1.25-.75-1v-.25l-.75-.75-1-2-.5-2.25-1.75-3.5-.5-.5V410l-1-.75Z"/><path d="M371.5 418h1.5l1.25 1.25v.25l.25.25v.25l.25.25v.25l.25.25v.25l.5.5v.25l.5.5v.25l.5.5v.25l.25.25v1.75l-.25.25v.25l-.75.75h-.25l-.25.25H375l-.25.25H371l-.25-.25h-.5l-.25-.25h-.25l-.25-.25h-.25L368 425v-1.5l.25-.25V423l.5-.5v-.25l.5-.5v-.25l.25-.25v-.5l.25-.25v-.5l.25-.25v-.25l.25-.25V419l.75-.75h.25ZM459.25 408.75h-.75l-.75.75-1 2-.75.75-1.5 2.5v.5l-.5 1v3.5l-1.25 2.75-1.25 1.5v.25l-1.5 1.5h-.5l-.25.25-1.5-.25-1-1.25v-.5l-1-2v-3.75l-.25-.25-.25-1-.5-.5-1-1.75V414l-.75-1.5v-.5l-.25-.25v-1.25l-.5-1-.5-.25h-1.25l-.5.25-1.5 1.5-1 1.75v.5l-.5 1V420l.25.25v.5l.5.5h.5L441 419h.75l.5.25 1 1 .75 1.5v3.75l.25.25v.5L445 428l1.75 2.5v.5l.25.25v2.25l.25.25v.5l1 1h1.25l.5-.25 1.25-1.25 1.25-2.25.25-1.5.25-.25v-.5l.5-.75v-.75l.25-.25v-2.25l.5-1 2-2.25v-.5l.5-1V418l.25-.25v-.5l1-2 1.25-1.5.5-1.75.25-.25v-2ZM298.75 409.75l-.75 1.5v22l.25.25v.75l1.25 1 .75-.25.5-1v-3l1.5-3 .75-.75 1-.5h.75l.25-.25h1l.5-.25.25.25h.75l1 .5 1.25 1.25h.25l1.75 2 .75 1.5L314 433h.25l1.25 1.5v.25l1 1 .5.25h1l.5-.25.5-.5v-1l-.75-.75-.75-1.75-2.25-2-.25-.5v-1.75l1-1.25V426l1.25-1.25.75-1.5 2.25-2.5.25-1 .25-.25v-3.25l-.25-.25v-.5l-.25-.25v-.5l-.5-1-.5-.5-.5-1-.75-.75-.75-1.5-1-.75h-.5l-.25-.25H314l-.25-.25h-5.5l-.25.25h-7.75Z"/><path d="m302 413.75 1.25-1.25h.25l.25-.25h.25l.25-.25h.25l.25-.25h.25l.25-.25h.25l.25-.25h.25l.25-.25h1.25l.25.25h.5l.25.25h.5l.25.25h4l.25.25h.5l1.25 1.25v.25l.25.25v.25l.25.25v.5l.25.25v.75l.25.25v1l.25.25v.25l-.25.25v1l-.25.25v.75l-.25.25v.25l-.25.25v.25l-1.75 1.75h-.25l-.25.25h-.5l-.25.25h-3.25l-.25.25h-.75l-.25.25h-.5l-.25.25h-.75l-.25-.25h-.5l-.25-.25h-.5l-.25-.25H304l-.25-.25h-.25l-.25-.25H303l-1.5-1.5v-.5l-.25-.25V419l-.25-.25v-1.25l.25-.25v-.5l.25-.25v-.75l.25-.25v-1l.25-.25ZM194.75 408.75l-.75 1.5v24.25l.75 1.5 1.5.75H211l.75-.25.75-.75V435l-.75-.75-.75-.25h-11.75l-1.25-.5-.75-.75-.5-1.25v-4.25l.25-.75 1.5-2.25 1.25-1.25.5-.25h1.5l3.75 1.75h1.75l1-.75.5-1v-1.25l-2.25-1.25h-.75l-.25-.25-6.5.25-.5-.25-1.25-1.25-.5-1.25v-4l.25-.75 1.25-1.25 1.25-.5h.75l2 .75h7.25l.75-.25 1-1v-1.25l-1-1-.75-.25-2.25.25-1.5.75H204l-2.5-1h-5.25ZM84.5 408.5h-1.75l-.25.25H82l-.25.25H80l-.25-.25h-.5l-.75-.5h-.75l-.25-.25H67.25l-.25.25h-.5l-.25.25h-.5l-.25.25h-.25l-1.25 1V411l.75.5h.5l.25.25h5l.25.25h.5l.25.25h.25l.75.75v.25l.25.25v.5l.25.25v19l.25.25v.75l.75.75h.25l.25.25h.25l.75-.5v-.5l.25-.25v-3l.25-.25v-.5l.5-.75v-.75l.25-.25v-13.25L77 415v-.75l.25-.25.25-.75 1.25-1.25h.5l.25-.25h4l.25-.25h.5l1-1v-1.25ZM154 24.5 24.5 342.25l124.75-63.5 43.25-103.5-21.5-6 33-80 64.5-2.5L301.75 99 314 125.5l-31.25 40-78.5 23 36.25 83.25 239 83.5L351.75 250.5l-60.25-27.25 90.5-37.5L537.5 86.5 416.25 123 404 74.25 353 35.5Z"/></g></svg>